<svg width="512" height="512" viewBox="0 0 512 512" fill="none" xmlns="http://www.w3.org/2000/svg">
<g clip-path="url(#clip0)">
<path d="M501.333 96H10.667C4.779 96 0 100.779 0 106.667C0 112.555 4.779 117.334 10.667 117.334H501.334C507.222 117.334 512.001 112.555 512.001 106.667C512.001 100.779 507.221 96 501.333 96Z" fill="#3D3D3D"/>
<path d="M501.333 245.333H10.667C4.779 245.333 0 250.112 0 256C0 261.888 4.779 266.667 10.667 266.667H501.334C507.222 266.667 512.001 261.888 512.001 256C512.001 250.112 507.221 245.333 501.333 245.333Z" fill="#3D3D3D"/>
<path d="M501.333 394.667H10.667C4.779 394.667 0 399.445 0 405.333C0 411.221 4.779 416 10.667 416H501.334C507.222 416 512.001 411.221 512.001 405.333C512 399.445 507.221 394.667 501.333 394.667Z" fill="#3D3D3D"/>
</g>
<defs>
<clipPath id="clip0">
<rect width="512" height="512" fill="white"/>
</clipPath>
</defs>
</svg>
